<?xml version="1.0" encoding="UTF-8"?>
<svg version="1.1" xmlns="http://www.w3.org/2000/svg" width="64" height="64">
<path d="M0 0 C1.8871875 -0.00386719 1.8871875 -0.00386719 3.8125 -0.0078125 C7 0.125 7 0.125 9 1.125 C9 3.765 9 6.405 9 9.125 C6.36 9.125 3.72 9.125 1 9.125 C1 9.785 1 10.445 1 11.125 C2.03125 11.228125 3.0625 11.33125 4.125 11.4375 C11.5029951 12.74649913 16.41856716 16.31722403 21 22.125 C23.69612508 27.04258025 24 30.38517142 24 36.125 C20.04 36.125 16.08 36.125 12 36.125 C12 37.445 12 38.765 12 40.125 C12.67546875 40.10179687 13.3509375 40.07859375 14.046875 40.0546875 C15.38492188 40.02761719 15.38492188 40.02761719 16.75 40 C18.07257812 39.96519531 18.07257812 39.96519531 19.421875 39.9296875 C22.14906426 40.13629275 23.71315408 40.65194159 26 42.125 C27 44.125 27 44.125 27 52.125 C9.18 52.125 -8.64 52.125 -27 52.125 C-27 44.125 -27 44.125 -25.625 42.1875 C-22.51792637 40.15595186 -20.56786899 40.01515553 -16.875 40.0625 C-15.96492188 40.07152344 -15.05484375 40.08054688 -14.1171875 40.08984375 C-13.41851562 40.10144531 -12.71984375 40.11304688 -12 40.125 C-12 38.805 -12 37.485 -12 36.125 C-15.96 36.125 -19.92 36.125 -24 36.125 C-23.24812479 26.20024727 -20.65848132 21.0533547 -13.0625 14.4375 C-9.10981124 11.92215261 -5.65836314 11.125 -1 11.125 C-1 10.465 -1 9.805 -1 9.125 C-3.64 9.125 -6.28 9.125 -9 9.125 C-9 6.485 -9 3.845 -9 1.125 C-6.02760209 -0.36119895 -3.30380422 -0.00677009 0 0 Z " fill="#201F18" transform="translate(32,11.875)"/>
<path d="M0 0 C6.45515055 3.24885599 9.28446083 8.27513151 11.77734375 14.89453125 C11.77734375 16.21453125 11.77734375 17.53453125 11.77734375 18.89453125 C-2.74265625 18.89453125 -17.26265625 18.89453125 -32.22265625 18.89453125 C-31.19545819 11.70414486 -30.01109481 6.88540379 -24.21875 2.3125 C-16.35056169 -2.71560561 -8.70129023 -3.77343081 0 0 Z " fill="#F0C301" transform="translate(42.22265625,27.10546875)"/>
<path d="M0 0 C0.87100342 -0.00945648 1.74200684 -0.01891296 2.6394043 -0.02865601 C3.57695557 -0.02258331 4.51450684 -0.01651062 5.48046875 -0.01025391 C6.44573486 -0.01312408 7.41100098 -0.01599426 8.40551758 -0.01895142 C10.44645779 -0.02099302 12.48741752 -0.01545648 14.52832031 -0.00292969 C17.65604315 0.01312239 20.78247371 -0.00277536 23.91015625 -0.02197266 C25.89192994 -0.01999024 27.87370283 -0.0161466 29.85546875 -0.01025391 C30.79302002 -0.0163266 31.73057129 -0.02239929 32.6965332 -0.02865601 C33.56753662 -0.01919952 34.43854004 -0.00974304 35.3359375 0 C36.10188232 0.00238678 36.86782715 0.00477356 37.65698242 0.00723267 C39.66796875 0.38818359 39.66796875 0.38818359 41.4387207 1.53744507 C42.66796875 3.38818359 42.66796875 3.38818359 42.66796875 9.38818359 C26.16796875 9.38818359 9.66796875 9.38818359 -7.33203125 9.38818359 C-7.33203125 3.38818359 -7.33203125 3.38818359 -6.1027832 1.53744507 C-3.90679967 0.11219786 -2.60970093 0.00813215 0 0 Z " fill="#A16F29" transform="translate(14.33203125,53.61181640625)"/>
<path d="M0 0 C0 0.66 0 1.32 0 2 C-1.269553 2.64834654 -2.54069706 3.29357815 -3.8125 3.9375 C-4.52019531 4.29714844 -5.22789063 4.65679688 -5.95703125 5.02734375 C-8 6 -8 6 -11 7 C-12.12516085 8.83284443 -12.12516085 8.83284443 -13 11 C-13.66 12.32 -14.32 13.64 -15 15 C-11.37 15.33 -7.74 15.66 -4 16 C-4 16.33 -4 16.66 -4 17 C-7.96 17.33 -11.92 17.66 -16 18 C-16.33 19.65 -16.66 21.3 -17 23 C-13.04 23 -9.08 23 -5 23 C-5 24.98 -5 26.96 -5 29 C-4.05157227 28.9592334 -3.10314453 28.9184668 -2.12597656 28.87646484 C1.39982487 28.73002443 4.92572888 28.59321812 8.45214844 28.46289062 C9.9770401 28.40456498 11.50179094 28.34242562 13.02636719 28.27636719 C15.22044224 28.18196761 17.41466149 28.10138769 19.609375 28.0234375 C20.62834869 27.97514297 20.62834869 27.97514297 21.66790771 27.9258728 C25.29806561 27.81152049 27.97684338 27.87235438 31 30 C32 32 32 32 32 40 C14.18 40 -3.64 40 -22 40 C-22 32 -22 32 -20.625 30.0625 C-17.51792637 28.03095186 -15.56786899 27.89015553 -11.875 27.9375 C-10.96492188 27.94652344 -10.05484375 27.95554687 -9.1171875 27.96484375 C-8.41851562 27.97644531 -7.71984375 27.98804687 -7 28 C-7 26.68 -7 25.36 -7 24 C-10.96 24 -14.92 24 -19 24 C-18.3390879 15.27596034 -16.68924019 10.0366314 -10 4 C-6.6934263 1.2769393 -4.39721973 0 0 0 Z M-18.77075195 31.14926147 C-20.55327298 33.46270418 -20.55327298 33.46270418 -20 39 C-3.5 39 13 39 30 39 C30.55327298 33.46270418 30.55327298 33.46270418 28.77075195 31.14926147 C26.57476842 29.72401427 25.27766968 29.61994856 22.66796875 29.61181641 C21.79696533 29.60235992 20.92596191 29.59290344 20.02856445 29.5831604 C19.09101318 29.58923309 18.15346191 29.59530579 17.1875 29.6015625 C16.22223389 29.59869232 15.25696777 29.59582214 14.26245117 29.59286499 C12.22151096 29.59082339 10.18055123 29.59635993 8.13964844 29.60888672 C5.0119256 29.6249388 1.88549504 29.60904105 -1.2421875 29.58984375 C-3.22396119 29.59182616 -5.20573408 29.5956698 -7.1875 29.6015625 C-8.12505127 29.59548981 -9.06260254 29.58941711 -10.02856445 29.5831604 C-10.89956787 29.59261688 -11.77057129 29.60207336 -12.66796875 29.61181641 C-13.43391357 29.61420319 -14.1998584 29.61658997 -14.98901367 29.61904907 C-17.05954544 29.87977221 -17.05954544 29.87977221 -18.77075195 31.14926147 Z " fill="#1A1A19" transform="translate(27,24)"/>
<path d="M0 0 C0 0.66 0 1.32 0 2 C-1.269553 2.64834654 -2.54069706 3.29357815 -3.8125 3.9375 C-4.52019531 4.29714844 -5.22789063 4.65679688 -5.95703125 5.02734375 C-8 6 -8 6 -11 7 C-12.12516085 8.83284443 -12.12516085 8.83284443 -13 11 C-13.66 12.32 -14.32 13.64 -15 15 C-11.37 15.33 -7.74 15.66 -4 16 C-4 16.33 -4 16.66 -4 17 C-7.96 17.33 -11.92 17.66 -16 18 C-16.33 19.65 -16.66 21.3 -17 23 C-13.04 23 -9.08 23 -5 23 C-5 25.31 -5 27.62 -5 30 C-8.96 30 -12.92 30 -17 30 C-17 29.34 -17 28.68 -17 28 C-13.7 28 -10.4 28 -7 28 C-7 26.68 -7 25.36 -7 24 C-10.96 24 -14.92 24 -19 24 C-18.3390879 15.27596034 -16.68924019 10.0366314 -10 4 C-6.6934263 1.2769393 -4.39721973 0 0 0 Z " fill="#232118" transform="translate(27,24)"/>
<path d="M0 0 C6.6 0 13.2 0 20 0 C20 1.65 20 3.3 20 5 C13.4 5 6.8 5 0 5 C0 3.35 0 1.7 0 0 Z " fill="#FEB900" transform="translate(22,48)"/>
<path d="M0 0 C14.52 0 29.04 0 44 0 C44 0.33 44 0.66 44 1 C40.7 1 37.4 1 34 1 C34 2.65 34 4.3 34 6 C33.34 6.33 32.68 6.66 32 7 C32 5.35 32 3.7 32 2 C30.69546875 2.01160156 29.3909375 2.02320313 28.046875 2.03515625 C18.63774279 2.09277053 9.3605521 2.06542869 0 1 C0 0.67 0 0.34 0 0 Z " fill="#4F4114" transform="translate(10,46)"/>
<path d="M0 0 C4.62 0 9.24 0 14 0 C14 1.65 14 3.3 14 5 C9.05 5 4.1 5 -1 5 C-0.67 3.35 -0.34 1.7 0 0 Z " fill="#E7BC02" transform="translate(25,14)"/>
<path d="M0 0 C0.99 0 1.98 0 3 0 C1.85569823 3.87302138 0.76679902 7.00263439 -2 10 C-2.66 10 -3.32 10 -4 10 C-3.43768609 6.06380262 -2.38314183 3.20807554 0 0 Z " fill="#191919" transform="translate(47,5)"/>
<path d="M0 0 C0.99 0 1.98 0 3 0 C7 6.625 7 6.625 7 10 C2.57320993 8.52440331 2.08567304 6.09942632 0 2 C0 1.34 0 0.68 0 0 Z " fill="#191919" transform="translate(14,5)"/>
<path d="M0 0 C-0.54074373 3.78520613 -2.07572746 5.59177555 -5 8 C-5.99 8 -6.98 8 -8 8 C-6.48291727 4.46014029 -4.24676932 0 0 0 Z " fill="#191919" transform="translate(58,13)"/>
<path d="M0 0 C3.36179774 1.44077046 5.59156268 3.24750021 8 6 C8 6.66 8 7.32 8 8 C4.21479387 7.45925627 2.40822445 5.92427254 0 3 C0 2.01 0 1.02 0 0 Z " fill="#191919" transform="translate(6,13)"/>
<path d="M0 0 C0.66 0 1.32 0 2 0 C2 3.3 2 6.6 2 10 C1.34 10 0.68 10 0 10 C0 6.7 0 3.4 0 0 Z " fill="#191919" transform="translate(31,0)"/>
</svg>
