<?xml version="1.0" encoding="UTF-8"?>
<svg version="1.1" xmlns="http://www.w3.org/2000/svg" width="64" height="64">
<path d="M0 0 C5.30643041 -0.50537432 7.86680312 0.69344249 12 4 C14.80747428 6.7138918 14.98723568 7.74471357 15.1875 11.75 C15.0946875 13.35875 15.0946875 13.35875 15 15 C15.66 14.67 16.32 14.34 17 14 C21.00277636 13.35596877 24.54150208 13.18589298 28.1484375 15.19921875 C30.0284297 16.72239611 31.59329369 18.02789726 33 20 C33 21.32 33 22.64 33 24 C30.69 24 28.38 24 26 24 C26.33 24.495 26.66 24.99 27 25.5 C28.43636358 29.09090894 28.12851462 32.14456127 28 36 C26.68 36 25.36 36 24 36 C21.75 33.5 21.75 33.5 20 31 C19.54625 32.093125 19.0925 33.18625 18.625 34.3125 C17.58357909 36.82137765 16.53521956 38.69717067 15 41 C15.928125 41.28875 16.85625 41.5775 17.8125 41.875 C21 43 21 43 24 45 C26.3329614 45.04166002 28.6670386 45.04166002 31 45 C31.99 45.33 32.98 45.66 34 46 C36.00124361 45.67421616 38.00102872 45.33944795 40 45 C45.36131824 44.82979942 49.56075731 45.22296533 55 46 C55 51.94 55 57.88 55 64 C33.88 64 12.76 64 -9 64 C-9 56.41 -9 48.82 -9 41 C-6.36 40.01 -3.72 39.02 -1 38 C1.20306804 35.14994394 1.20306804 35.14994394 2.5 31.8125 C3.22703125 30.18248047 3.22703125 30.18248047 3.96875 28.51953125 C4.3090625 27.68808594 4.649375 26.85664063 5 26 C2.41125365 26.5501086 1.09606563 26.92194668 -1 28.625 C-3 30 -3 30 -5.25 29.6875 C-5.8275 29.460625 -6.405 29.23375 -7 29 C-6.59791618 23.37082652 -4.71069698 20.99613521 -1 17 C-3.64 17 -6.28 17 -9 17 C-8.8125 14.625 -8.8125 14.625 -8 12 C-4.37867591 9.82720555 -1.14603463 9.81573179 3 10 C3.66 10 4.32 10 5 10 C4.6390625 9.52949219 4.278125 9.05898437 3.90625 8.57421875 C3.4421875 7.95160156 2.978125 7.32898438 2.5 6.6875 C2.0359375 6.07261719 1.571875 5.45773438 1.09375 4.82421875 C0 3 0 3 0 0 Z M11 30 C10.01 32.97 9.02 35.94 8 39 C8.99 39 9.98 39 11 39 C11.33 36.03 11.66 33.06 12 30 C11.67 30 11.34 30 11 30 Z " fill="#060D0B" transform="translate(9,0)"/>
<path d="M0 0 C8.68994913 1.49758761 16.96937314 4.52589796 22.41796875 11.92578125 C26 17.41421569 26 17.41421569 26 21 C20.06 21 14.12 21 8 21 C8 21.66 8 22.32 8 23 C7.01 22.67 6.02 22.34 5 22 C3.59335074 21.85507877 2.1818867 21.75371069 0.76953125 21.68359375 C-0.03291016 21.64169922 -0.83535156 21.59980469 -1.66210938 21.55664062 C-2.49548828 21.51732422 -3.32886719 21.47800781 -4.1875 21.4375 C-5.03248047 21.39431641 -5.87746094 21.35113281 -6.74804688 21.30664062 C-8.83184433 21.20068482 -10.91590103 21.0998498 -13 21 C-12.24373904 17.51425065 -11.24014689 15.89467406 -8.75 13.3125 C-5.02899543 9.23857541 -2.46775379 4.9127633 0 0 Z " fill="#FAD8A3" transform="translate(15,41)"/>
<path d="M0 0 C1.155 0.165 2.31 0.33 3.5 0.5 C8.74033447 1.15155136 13.92594212 1.69135263 19 0 C22.1875 0.9375 22.1875 0.9375 25 2 C25 3.98 25 5.96 25 8 C23.02 8 21.04 8 19 8 C20.98 8.66 22.96 9.32 25 10 C25 11.98 25 13.96 25 16 C11.9835398 16.7680946 -0.96123872 17.13274757 -14 17 C-14 16.34 -14 15.68 -14 15 C-8.06 15 -2.12 15 4 15 C2.68 12.36 1.36 9.72 0 7 C-0.66 5.68 -1.32 4.36 -2 3 C-1.34 2.01 -0.68 1.02 0 0 Z " fill="#111414" transform="translate(37,47)"/>
<path d="M0 0 C0.78375 0.185625 1.5675 0.37125 2.375 0.5625 C4.97089775 1.25962266 4.97089775 1.25962266 7 0 C6.67 1.32 6.34 2.64 6 4 C6.66 4 7.32 4 8 4 C9.1577506 7.47325181 9.06866652 10.36067448 9 14 C8.34 14 7.68 14 7 14 C7 12.35 7 10.7 7 9 C6.01 9.33 5.02 9.66 4 10 C4.33 8.02 4.66 6.04 5 4 C4.34 4 3.68 4 3 4 C2.77957031 4.81791016 2.77957031 4.81791016 2.5546875 5.65234375 C0.69766418 11.89578423 -2.17010495 16.75713396 -6 22 C-6.66 21.67 -7.32 21.34 -8 21 C-10.13252737 21.60761953 -10.13252737 21.60761953 -12 23 C-12.80528889 25.05000871 -12.80528889 25.05000871 -13 27 C-12.34 27 -11.68 27 -11 27 C-11 29.64 -11 32.28 -11 35 C-10.01 34.34 -9.02 33.68 -8 33 C-9.33333333 35.66666667 -10.66666667 38.33333333 -12 41 C-6.06 41 -0.12 41 6 41 C6.33 41.66 6.66 42.32 7 43 C0.07 43 -6.86 43 -14 43 C-14 35.41 -14 27.82 -14 20 C-10.04 18.515 -10.04 18.515 -6 17 C-3.79693196 14.14994394 -3.79693196 14.14994394 -2.5 10.8125 C-2.0153125 9.72582031 -1.530625 8.63914062 -1.03125 7.51953125 C-0.52078125 6.27236328 -0.52078125 6.27236328 0 5 C-2.58874635 5.5501086 -3.90393437 5.92194668 -6 7.625 C-8 9 -8 9 -10.25 8.6875 C-10.8275 8.460625 -11.405 8.23375 -12 8 C-11.67 7.01 -11.34 6.02 -11 5 C-9.125 4.4375 -9.125 4.4375 -7 4 C-6.01 3.34 -5.02 2.68 -4 2 C-2.68 2 -1.36 2 0 2 C0 1.34 0 0.68 0 0 Z " fill="#030201" transform="translate(14,21)"/>
<path d="M0 0 C1.32 0.33 2.64 0.66 4 1 C4 1.66 4 2.32 4 3 C4.66 2.67 5.32 2.34 6 2 C12.13545817 1.55378486 12.13545817 1.55378486 14.9375 3 C16.65930485 6.24104443 16.66300779 9.42422767 16 13 C14.375 15 14.375 15 12 16 C8.88810534 16.24895157 6.80915474 16.40457737 4 15 C3.67 15.99 3.34 16.98 3 18 C2.01 18 1.02 18 0 18 C0.33 16.68 0.66 15.36 1 14 C1.66 14 2.32 14 3 14 C2.67 13.34 2.34 12.68 2 12 C2.03238412 9.99218478 2.06480122 7.98437007 2.09765625 5.9765625 C1.97979867 3.59112509 1.32057043 1.98085564 0 0 Z " fill="#090702" transform="translate(42,24)"/>
<path d="M0 0 C0.66 0 1.32 0 2 0 C0.16367999 11.83406231 -5.81590717 23.26105342 -14 32 C-14.33 32 -14.66 32 -15 32 C-15.125 25.25 -15.125 25.25 -14 23 C-14.66 23 -15.32 23 -16 23 C-15.8125 20.625 -15.8125 20.625 -15 18 C-12.54236535 16.67665827 -10.79402354 16 -8 16 C-5.36 10.72 -2.72 5.44 0 0 Z " fill="#CF7D4E" transform="translate(17,25)"/>
<path d="M0 0 C1.155 0.165 2.31 0.33 3.5 0.5 C8.74033447 1.15155136 13.92594212 1.69135263 19 0 C22.1875 0.9375 22.1875 0.9375 25 2 C25 3.98 25 5.96 25 8 C23.783125 7.814375 22.56625 7.62875 21.3125 7.4375 C17.93669621 7.00210481 15.33007737 7.23883946 12 8 C11.01 7.67 10.02 7.34 9 7 C6.99124558 7.27571139 4.98821313 7.60235737 3 8 C0.9375 5.6875 0.9375 5.6875 -1 3 C-0.67 2.01 -0.34 1.02 0 0 Z " fill="#5CB3F6" transform="translate(37,47)"/>
<path d="M0 0 C0 0.66 0 1.32 0 2 C1.093125 1.9175 2.18625 1.835 3.3125 1.75 C7 2 7 2 9 3.75 C10 6 10 6 9.75 8.125 C8.24882629 11.87793427 8.24882629 11.87793427 4.6875 13.625 C1 15 1 15 -3 15 C-2.42647107 11.12867972 -0.51295648 8.91827204 2 6 C-0.64 6 -3.28 6 -6 6 C-5.625 3.5625 -5.625 3.5625 -5 1 C-3 0 -3 0 0 0 Z " fill="#000805" transform="translate(6,11)"/>
<path d="M0 0 C1.68740514 -0.02746229 3.3749463 -0.04660111 5.0625 -0.0625 C6.47208984 -0.07990234 6.47208984 -0.07990234 7.91015625 -0.09765625 C11.29159252 0.00921595 14.65087739 0.52155391 18 1 C18 6.94 18 12.88 18 19 C10.74 19 3.48 19 -4 19 C-4 18.67 -4 18.34 -4 18 C2.6 18 9.2 18 16 18 C16 16.02 16 14.04 16 12 C14.824375 12.0928125 14.824375 12.0928125 13.625 12.1875 C12.325625 12.0946875 12.325625 12.0946875 11 12 C10.34 11.01 9.68 10.02 9 9 C11.31 9.33 13.62 9.66 16 10 C16 8.02 16 6.04 16 4 C15.21625 4.020625 14.4325 4.04125 13.625 4.0625 C11 4 11 4 9 3 C7.576875 3.2784375 7.576875 3.2784375 6.125 3.5625 C2.8177538 4.02551447 1.72817192 3.78380472 -1 2 C-0.67 1.34 -0.34 0.68 0 0 Z " fill="#05080A" transform="translate(46,45)"/>
<path d="M0 0 C0.99 -0.33 1.98 -0.66 3 -1 C6.1875 -0.0625 6.1875 -0.0625 9 1 C9 2.65 9 4.3 9 6 C2.73 6 -3.54 6 -10 6 C-10.33 4.35 -10.66 2.7 -11 1 C-7.20313511 -1.58186812 -4.36433828 -0.71416445 0 0 Z " fill="#82C4FA" transform="translate(53,56)"/>
<path d="M0 0 C0.99 0.33 1.98 0.66 3 1 C2.34 2.98 1.68 4.96 1 7 C1.66 7 2.32 7 3 7 C3 9.64 3 12.28 3 15 C3.99 14.34 4.98 13.68 6 13 C4.66666667 15.66666667 3.33333333 18.33333333 2 21 C7.94 21 13.88 21 20 21 C20.33 21.66 20.66 22.32 21 23 C14.07 23 7.14 23 0 23 C0 15.41 0 7.82 0 0 Z " fill="#0C0704" transform="translate(0,41)"/>
<path d="M0 0 C3.19674245 0.20404739 5.30589597 0.46785358 7.875 2.4375 C9 4 9 4 9 6 C6.8125 8.1875 6.8125 8.1875 4 10 C-0.29268293 9.70731707 -0.29268293 9.70731707 -2 8 C-2.1875 5.0625 -2.1875 5.0625 -2 2 C-1.34 1.34 -0.68 0.68 0 0 Z " fill="#FBBF61" transform="translate(49,28)"/>
<path d="M0 0 C3.44492644 0.86123161 5.71067422 1.75518588 8.4375 4.0625 C10.65198364 8.22572925 9.90316808 11.49397665 9 16 C8.34 16 7.68 16 7 16 C6.82984375 15.43152344 6.6596875 14.86304688 6.484375 14.27734375 C4.84932263 9.0677886 2.86690828 4.64636859 0 0 Z " fill="#00CF8F" transform="translate(12,2)"/>
<path d="M0 0 C11.52164009 -0.55353075 11.52164009 -0.55353075 17 3 C17 4.98 17 6.96 17 9 C16.67 9 16.34 9 16 9 C16 7.35 16 5.7 16 4 C15.21625 4.020625 14.4325 4.04125 13.625 4.0625 C11 4 11 4 9 3 C7.576875 3.2784375 7.576875 3.2784375 6.125 3.5625 C2.8177538 4.02551447 1.72817192 3.78380472 -1 2 C-0.67 1.34 -0.34 0.68 0 0 Z " fill="#070E13" transform="translate(46,45)"/>
<path d="M0 0 C3.375 2 3.375 2 6 4 C2.58860997 5.09651823 -0.20655581 4.94215473 -3.75 4.5625 C-4.73484375 4.46066406 -5.7196875 4.35882812 -6.734375 4.25390625 C-7.48203125 4.17011719 -8.2296875 4.08632813 -9 4 C-9 3.34 -9 2.68 -9 2 C-5.46569344 -0.35620437 -4.16428713 -0.48991613 0 0 Z " fill="#00C98A" transform="translate(33,16)"/>
<path d="M0 0 C0.33 0.66 0.66 1.32 1 2 C6.94 2 12.88 2 19 2 C19.33 2.66 19.66 3.32 20 4 C13.07 4 6.14 4 -1 4 C-0.67 2.68 -0.34 1.36 0 0 Z " fill="#0F0C09" transform="translate(1,60)"/>
<path d="M0 0 C0.66 0 1.32 0 2 0 C0.90301833 5.69139902 -0.54053077 10.74567937 -3 16 C-4.32 15.34 -5.64 14.68 -7 14 C-4.69 9.38 -2.38 4.76 0 0 Z " fill="#BE6D3F" transform="translate(17,25)"/>
<path d="M0 0 C2.125 0.375 2.125 0.375 4 1 C3.01 1.495 3.01 1.495 2 2 C1.83318891 4.91652174 1.83318891 4.91652174 2 8 C2.66 8.66 3.32 9.32 4 10 C-0.875 9.125 -0.875 9.125 -2 8 C-2.1875 5.0625 -2.1875 5.0625 -2 2 C-1.34 1.34 -0.68 0.68 0 0 Z " fill="#E59911" transform="translate(49,28)"/>
<path d="M0 0 C0.66 0 1.32 0 2 0 C0.58036591 5.67853635 -2.39363961 9.53174216 -6 14 C-6.66 13.34 -7.32 12.68 -8 12 C-7.50628906 11.30132812 -7.01257813 10.60265625 -6.50390625 9.8828125 C-5.86324219 8.97273438 -5.22257813 8.06265625 -4.5625 7.125 C-3.92441406 6.22007813 -3.28632813 5.31515625 -2.62890625 4.3828125 C-1.00481862 2.12261419 -1.00481862 2.12261419 0 0 Z " fill="#211911" transform="translate(13,41)"/>
<path d="M0 0 C0.66 0.99 1.32 1.98 2 3 C0.1875 5 0.1875 5 -2 7 C-2.99 7 -3.98 7 -5 7 C-4.75 4.625 -4.75 4.625 -4 2 C-1.9375 0.6875 -1.9375 0.6875 0 0 Z " fill="#634B28" transform="translate(6,41)"/>
<path d="M0 0 C3.03336186 -0.22893297 5.97465051 -0.36475845 9 0 C11.0625 2 11.0625 2 12 4 C10.7315625 3.7834375 10.7315625 3.7834375 9.4375 3.5625 C5.96406851 2.9941203 2.48554338 2.48797607 -1 2 C-0.67 1.34 -0.34 0.68 0 0 Z " fill="#00CF8E" transform="translate(4,13)"/>
<path d="M0 0 C4.39158329 1.4638611 4.87947433 3.97831338 7 8 C3.88045262 7.66275164 2.3790035 7.3790035 0.125 5.125 C-0.24625 4.42375 -0.6175 3.7225 -1 3 C-0.67 2.01 -0.34 1.02 0 0 Z " fill="#1D96E1" transform="translate(37,47)"/>
<path d="M0 0 C2.6635969 0.35994553 4.58183452 0.71161002 6.8125 2.25 C8.39364795 4.58011277 8.22337696 6.24501755 8 9 C7.236875 8.21625 6.47375 7.4325 5.6875 6.625 C3.09108195 3.92742283 3.09108195 3.92742283 0 2 C0 1.34 0 0.68 0 0 Z " fill="#00DE99" transform="translate(26,23)"/>
<path d="M0 0 C2.33746522 0.30300475 4.67085177 0.63858045 7 1 C9.32158065 0.65340705 9.32158065 0.65340705 11 0 C10.01 0.495 10.01 0.495 9 1 C9 1.66 9 2.32 9 3 C4.58937864 4.0257259 2.07369424 4.03684712 -2 2 C-1.34 1.34 -0.68 0.68 0 0 Z " fill="#14222D" transform="translate(46,53)"/>
<path d="M0 0 C0.33 0 0.66 0 1 0 C1 2.31 1 4.62 1 7 C2.65 6.01 4.3 5.02 6 4 C4.43039961 7.66240092 3.06096354 8.93903646 0 12 C0 8.04 0 4.08 0 0 Z " fill="#010100" transform="translate(0,50)"/>
<path d="M0 0 C1.485 0.99 1.485 0.99 3 2 C2.74438677 4.3431213 2.40729228 6.67843403 2 9 C1.01 9.495 1.01 9.495 0 10 C0 6.7 0 3.4 0 0 Z " fill="#00CB8C" transform="translate(23,26)"/>
<path d="M0 0 C1 3 1 3 0.25 5.625 C-1 8 -1 8 -4 9 C-3.47731534 6.23723823 -2.89130413 3.6739124 -2 1 C-1.34 0.67 -0.68 0.34 0 0 Z " fill="#0F0906" transform="translate(19,30)"/>
<path d="M0 0 C1.65 0.33 3.3 0.66 5 1 C4.54625 1.433125 4.0925 1.86625 3.625 2.3125 C1.79975666 4.10798342 1.79975666 4.10798342 0 7 C0 6.01 0 5.02 0 4 C-0.66 4 -1.32 4 -2 4 C-1.34 2.68 -0.68 1.36 0 0 Z " fill="#353D3E" transform="translate(22,21)"/>
<path d="M0 0 C-1 3 -1 3 -3.4375 4.75 C-4.7059375 5.36875 -4.7059375 5.36875 -6 6 C-6.66 5.67 -7.32 5.34 -8 5 C-3.375 0 -3.375 0 0 0 Z " fill="#00C587" transform="translate(13,20)"/>
<path d="M0 0 C0.33 0.66 0.66 1.32 1 2 C-2.625 7.875 -2.625 7.875 -6 9 C-4.47291037 5.56404834 -2.40072955 2.88087546 0 0 Z " fill="#B96332" transform="translate(9,41)"/>
<path d="M0 0 C0.99 0 1.98 0 3 0 C3 1.32 3 2.64 3 4 C2.01 4 1.02 4 0 4 C0 2.68 0 1.36 0 0 Z " fill="#000000" transform="translate(50,41)"/>
<path d="M0 0 C0.99 0 1.98 0 3 0 C2.67 1.32 2.34 2.64 2 4 C1.01 3.67 0.02 3.34 -1 3 C-0.67 2.01 -0.34 1.02 0 0 Z " fill="#000000" transform="translate(57,24)"/>
<path d="M0 0 C0.99 0 1.98 0 3 0 C3 1.32 3 2.64 3 4 C2.01 4 1.02 4 0 4 C0 2.68 0 1.36 0 0 Z " fill="#000000" transform="translate(50,21)"/>
<path d="M0 0 C0.99 0.33 1.98 0.66 3 1 C3 1.99 3 2.98 3 4 C1.68 3.34 0.36 2.68 -1 2 C-0.67 1.34 -0.34 0.68 0 0 Z " fill="#000000" transform="translate(57,38)"/>
<path d="M0 0 C1.32 0 2.64 0 4 0 C4 0.66 4 1.32 4 2 C2.68 2 1.36 2 0 2 C0 1.34 0 0.68 0 0 Z " fill="#000000" transform="translate(59,32)"/>
<path d="M0 0 C1.32 0 2.64 0 4 0 C4 0.66 4 1.32 4 2 C2.68 2 1.36 2 0 2 C0 1.34 0 0.68 0 0 Z " fill="#000000" transform="translate(39,32)"/>
</svg>
