<?xml version="1.0" encoding="UTF-8"?>
<svg version="1.1" xmlns="http://www.w3.org/2000/svg" width="64" height="64">
<path d="M0 0 C3.3 0 6.6 0 10 0 C10 1.98 10 3.96 10 6 C11.27875 6.20625 12.5575 6.4125 13.875 6.625 C14.59429687 6.74101563 15.31359375 6.85703125 16.0546875 6.9765625 C17.01761719 6.98816406 17.01761719 6.98816406 18 7 C18.66 6.34 19.32 5.68 20 5 C22.71438364 5.18095891 24.08065907 6.05667935 26.3125 7.625 C28.69440228 10.97730691 27.62489909 13.04230579 27 17 C28.10078281 19.89242627 28.10078281 19.89242627 30 22 C30.99 22.33 31.98 22.66 33 23 C33 26.3 33 29.6 33 33 C32.34 33 31.68 33 31 33 C30.96132812 33.85271484 30.96132812 33.85271484 30.921875 34.72265625 C30.49565767 40.52502403 29.20178217 44.1456851 26 49 C26.598125 49.103125 27.19625 49.20625 27.8125 49.3125 C30.5017689 50.1576988 31.46031875 50.61349407 33 53 C33.54845627 56.55014264 33.62392248 59.75215505 32 63 C28.74293198 64.62853401 25.50875676 64.64374368 22 64 C19.33864658 62.08928472 18.28153787 60.84461361 17.25 57.75 C17.1675 57.1725 17.085 56.595 17 56 C16.31292969 56.32097656 15.62585937 56.64195313 14.91796875 56.97265625 C7.77344209 59.48806523 -0.63420624 59.10472504 -7.5 55.9375 C-14.37368996 51.93066924 -18.54219361 46.50996396 -21 39 C-21.1875 35.5625 -21.1875 35.5625 -21 33 C-21.99 32.67 -22.98 32.34 -24 32 C-24 29.03 -24 26.06 -24 23 C-22.68 22.67 -21.36 22.34 -20 22 C-18.02877392 19.91080119 -18.02877392 19.91080119 -17 17 C-17.20625 15.845 -17.4125 14.69 -17.625 13.5 C-18 10 -18 10 -15.8125 7 C-13 5 -13 5 -10.9375 5.125 C-10.298125 5.41375 -9.65875 5.7025 -9 6 C-5.64905965 7.0809485 -3.41493459 6.85373365 0 6 C0 4.02 0 2.04 0 0 Z M25 54 C24.01 55.485 24.01 55.485 23 57 C24.98 57.99 24.98 57.99 27 59 C27.33 58.01 27.66 57.02 28 56 C27.67 55.34 27.34 54.68 27 54 C26.34 54 25.68 54 25 54 Z " fill="#695679" transform="translate(27,0)"/>
<path d="M0 0 C1.98 0 3.96 0 6 0 C6.061875 0.94875 6.12375 1.8975 6.1875 2.875 C6.65848042 6.14094721 6.65848042 6.14094721 9.25 7.4375 C12.99259 8.20302977 15.60573366 7.43819799 19.1875 6.3125 C19.785625 6.209375 20.38375 6.10625 21 6 C21.66 6.66 22.32 7.32 23 8 C22.68510715 10.36169638 22.03026895 11.94902071 20.8125 14 C20.544375 14.66 20.27625 15.32 20 16 C20.83333333 18.08333333 20.83333333 18.08333333 22 20 C22 20.99 22 21.98 22 23 C24.31 23 26.62 23 29 23 C29 24.98 29 26.96 29 29 C26.69 29 24.38 29 22 29 C21.58286485 30.43146378 21.1919503 31.87058886 20.8125 33.3125 C20.48185547 34.51326172 20.48185547 34.51326172 20.14453125 35.73828125 C19.73805495 38.08969364 19.73805495 38.08969364 21.44921875 39.79296875 C21.96097656 40.19128906 22.47273438 40.58960938 23 41 C22.67 41.99 22.34 42.98 22 44 C20.27240129 42.37112121 18.62602481 40.72710203 17 39 C16.52304687 38.50371094 16.04609375 38.00742187 15.5546875 37.49609375 C12.37065278 33.72073829 11.78309758 31.32441437 12.0625 26.375 C12.30026337 22.59047355 12.30026337 22.59047355 10.9296875 19.18359375 C8.27189551 16.74148645 5.95924526 15.99356504 2.4375 15.4375 C-1.52374737 16.08570411 -3.18799374 17.18799374 -6 20 C-7.6143926 23.22878519 -7.5818272 26.50903682 -7 30 C-5.08333333 33.08333333 -5.08333333 33.08333333 -2 35 C-0.845 35.144375 0.31 35.28875 1.5 35.4375 C5.15847067 36.0254685 5.69740291 36.25899386 8 38.875 C8.66 39.90625 9.32 40.9375 10 42 C9.67 42.99 9.34 43.98 9 45 C8.01 45 7.02 45 6 45 C6 47.31 6 49.62 6 52 C4.02 52 2.04 52 0 52 C0.020625 51.0925 0.04125 50.185 0.0625 49.25 C-0.64253844 45.91486509 -0.64253844 45.91486509 -3.0703125 44.7109375 C-5.35701427 43.71453767 -7.64125546 42.81007388 -10 42 C-10.66 43.32 -11.32 44.64 -12 46 C-13.875 45.6875 -13.875 45.6875 -16 45 C-16.66 44.01 -17.32 43.02 -18 42 C-17.2265625 41.4121875 -17.2265625 41.4121875 -16.4375 40.8125 C-14.70689612 39.06357966 -14.70689612 39.06357966 -15.25 36.5625 C-15.4975 35.716875 -15.745 34.87125 -16 34 C-16.185625 33.236875 -16.37125 32.47375 -16.5625 31.6875 C-16.706875 31.130625 -16.85125 30.57375 -17 30 C-19.31 29.67 -21.62 29.34 -24 29 C-24 27.02 -24 25.04 -24 23 C-20.535 22.505 -20.535 22.505 -17 22 C-14.99552118 16.12378711 -14.99552118 16.12378711 -16.375 10.4375 C-16.91125 9.963125 -17.4475 9.48875 -18 9 C-16.35 7.68 -14.7 6.36 -13 5 C-12.60167969 5.51175781 -12.20335937 6.02351562 -11.79296875 6.55078125 C-10.08969364 8.26194505 -10.08969364 8.26194505 -7.73828125 7.85546875 C-6.93777344 7.63503906 -6.13726563 7.41460938 -5.3125 7.1875 C-4.50425781 6.97480469 -3.69601563 6.76210937 -2.86328125 6.54296875 C-1.94095703 6.27419922 -1.94095703 6.27419922 -1 6 C-0.67 4.02 -0.34 2.04 0 0 Z " fill="#F88E9C" transform="translate(29,2)"/>
<path d="M0 0 C3.3 0 6.6 0 10 0 C10 1.98 10 3.96 10 6 C11.27875 6.20625 12.5575 6.4125 13.875 6.625 C14.59429687 6.74101563 15.31359375 6.85703125 16.0546875 6.9765625 C17.01761719 6.98816406 17.01761719 6.98816406 18 7 C18.66 6.34 19.32 5.68 20 5 C22.71438364 5.18095891 24.08065907 6.05667935 26.3125 7.625 C28.69440228 10.97730691 27.62489909 13.04230579 27 17 C28.10078281 19.89242627 28.10078281 19.89242627 30 22 C30.99 22.33 31.98 22.66 33 23 C33 26.3 33 29.6 33 33 C30.69 32.67 28.38 32.34 26 32 C26 31.67 26 31.34 26 31 C27.65 31 29.3 31 31 31 C31 29.02 31 27.04 31 25 C28.69 25 26.38 25 24 25 C23.01 22.03 22.02 19.06 21 16 C21.99 15.01 22.98 14.02 24 13 C23.77242269 10.83700789 23.77242269 10.83700789 23 9 C22.443125 9.144375 21.88625 9.28875 21.3125 9.4375 C20.549375 9.623125 19.78625 9.80875 19 10 C18.21625 10.2475 17.4325 10.495 16.625 10.75 C13.04923194 11.09054934 11.04782472 9.77199112 8 8 C8 6.02 8 4.04 8 2 C6.02 2 4.04 2 2 2 C2 3.98 2 5.96 2 8 C-4.35227273 11.05397727 -4.35227273 11.05397727 -7.25 10.8125 C-9 10 -9 10 -12 8 C-12.99 9.32 -13.98 10.64 -15 12 C-14.48953125 12.39960938 -13.9790625 12.79921875 -13.453125 13.2109375 C-12 15 -12 15 -12.109375 17.2265625 C-12.32078125 18.01804687 -12.5321875 18.80953125 -12.75 19.625 C-12.95109375 20.42164062 -13.1521875 21.21828125 -13.359375 22.0390625 C-14 24 -14 24 -15 25 C-17.33297433 25.04092937 -19.66705225 25.04241723 -22 25 C-21.67 27.64 -21.34 30.28 -21 33 C-21.99 32.67 -22.98 32.34 -24 32 C-24 29.03 -24 26.06 -24 23 C-22.68 22.67 -21.36 22.34 -20 22 C-18.02877392 19.91080119 -18.02877392 19.91080119 -17 17 C-17.20625 15.845 -17.4125 14.69 -17.625 13.5 C-18 10 -18 10 -15.8125 7 C-13 5 -13 5 -10.9375 5.125 C-10.298125 5.41375 -9.65875 5.7025 -9 6 C-5.64905965 7.0809485 -3.41493459 6.85373365 0 6 C0 4.02 0 2.04 0 0 Z " fill="#695478" transform="translate(27,0)"/>
<path d="M0 0 C3.875 1.875 3.875 1.875 5 3 C5.06058594 4.00417969 5.12117188 5.00835937 5.18359375 6.04296875 C5.84632657 11.12046191 8.92146426 14.43915421 12.0625 18.3125 C13.1823287 19.72213681 14.29842058 21.13475298 15.41015625 22.55078125 C16.15471069 23.47370972 16.15471069 23.47370972 16.91430664 24.4152832 C18 26 18 26 18 28 C18.969375 28.144375 19.93875 28.28875 20.9375 28.4375 C24 29 24 29 25 30 C25.1875 33.4375 25.1875 33.4375 25 37 C23 39 23 39 19.5 39.3125 C18.345 39.209375 17.19 39.10625 16 39 C14 36 14 36 13.23828125 32.3359375 C12.04493204 27.258103 9.34474563 23.69467816 6.1875 19.625 C5.66607422 18.91472656 5.14464844 18.20445313 4.60742188 17.47265625 C1.7831444 13.7563161 -0.2741194 11.17055083 -5 10 C-5 9.01 -5 8.02 -5 7 C-4.67 7.33 -4.34 7.66 -4 8 C-2.33382885 8.04063832 -0.66611905 8.042721 1 8 C1.6878236 5.64632287 1.6878236 5.64632287 2 3 C1.34 2.01 0.68 1.02 0 0 Z M19 31 C18.01 32.485 18.01 32.485 17 34 C18.98 34.99 18.98 34.99 21 36 C21.33 35.01 21.66 34.02 22 33 C21.67 32.34 21.34 31.68 21 31 C20.34 31 19.68 31 19 31 Z " fill="#9EC6EA" transform="translate(33,23)"/>
<path d="M0 0 C3.57876103 2.2081717 5.40940509 4.15314271 7 8 C7.265625 10.21875 7.265625 10.21875 7.25 12.5 C7.25515625 13.2528125 7.2603125 14.005625 7.265625 14.78125 C6.97250404 17.2296721 6.21816769 18.87304054 5 21 C3.18827987 17.92704393 2.88410567 16.08118385 3.25 12.5625 C3.33471641 8.61341197 3.15924828 8.19032111 0.4375 4.9375 C-3.54335936 2.69374291 -5.50588566 2.26459947 -10 3 C-12.75329021 4.79562405 -14.52627461 6.05254922 -16 9 C-16.61782041 14.87637814 -16.61782041 14.87637814 -13.9375 19.9375 C-10.52172982 22.33580672 -8.09004693 22.53697582 -4 23 C-3.34 23.99 -2.68 24.98 -2 26 C-11.6760591 26.86051909 -11.6760591 26.86051909 -15.5 23.75 C-19.51802444 19.33017311 -20.47311893 16.13419471 -20.30859375 10.25 C-19.81026209 6.61659447 -18.47187713 4.66202153 -16 2 C-10.60810832 -1.27742435 -5.97445858 -1.6589491 0 0 Z " fill="#E4677D" transform="translate(38,15)"/>
<path d="M0 0 C2.31 0.66 4.62 1.32 7 2 C7 4.64 7 7.28 7 10 C9.97 10 12.94 10 16 10 C16 7.69 16 5.38 16 3 C17.65 2.34 19.3 1.68 21 1 C24.98123324 5.34316354 24.98123324 5.34316354 25.0625 8.1875 C23.51726461 10.82348978 21.88396341 11.07555145 19 12 C9.92139865 13.05307342 2.5953198 12.23661697 -5 7 C-7.625 4.6875 -7.625 4.6875 -9 3 C-8.67 2.34 -8.34 1.68 -8 1 C-7.34 1.66 -6.68 2.32 -6 3 C-3.06546739 2.63318342 -2.13562754 2.13562754 0 0 Z " fill="#EBC089" transform="translate(20,46)"/>
<path d="M0 0 C1.98 0 3.96 0 6 0 C9.05232558 5.25 9.05232558 5.25 8.8125 8.6875 C8 11 8 11 6 14 C6.66 14.66 7.32 15.32 8 16 C10.08333333 15.83333333 10.08333333 15.83333333 12 15 C12.33 14.34 12.66 13.68 13 13 C14.48034764 13.47550561 15.95925021 13.95551216 17.4375 14.4375 C18.26121094 14.70433594 19.08492187 14.97117187 19.93359375 15.24609375 C22 16 22 16 23 17 C23.04080783 18.99958364 23.04254356 21.00045254 23 23 C24.98 23 26.96 23 29 23 C29.33 23.66 29.66 24.32 30 25 C27.03 25 24.06 25 21 25 C21 22.36 21 19.72 21 17 C17.64541845 16.23477199 17.64541845 16.23477199 14 16 C12.31201173 17.43750191 12.31201173 17.43750191 11 19 C7.88650096 19 6.75123286 17.78677102 4.375 15.75 C-0.09602101 10.57302831 -0.22346917 6.59234052 0 0 Z " fill="#745C79" transform="translate(6,31)"/>
<path d="M0 0 C2.875 1.5 2.875 1.5 5 4 C5.70435841 6.73395412 5.85763535 9.15270693 6 12 C5.01 12.495 5.01 12.495 4 13 C3.87625 11.88625 3.7525 10.7725 3.625 9.625 C3.3534187 5.96896323 3.3534187 5.96896323 1 4 C-0.32 4 -1.64 4 -3 4 C-2.01 5.485 -2.01 5.485 -1 7 C-1.375 9.6875 -1.375 9.6875 -2 12 C-4.95409701 10.62845496 -7.44008376 9.01136276 -10 7 C-9.44967902 10.4306283 -9.44967902 10.4306283 -8 14 C-5.01565163 15.99425024 -5.01565163 15.99425024 -2 17 C-2 17.33 -2 17.66 -2 18 C-5.58848221 18.51264032 -6.80512535 18.13857753 -9.8125 16 C-12.25328605 12.65263628 -12.76368673 10.97909706 -12.48046875 6.9375 C-10.87278432 0.45447986 -5.98096831 -0.96122705 0 0 Z " fill="#E7BD88" transform="translate(35,19)"/>
<path d="M0 0 C1.01508723 2.03017447 2.0210883 4.04780015 2.9375 6.125 C3.99740267 8.32357759 3.99740267 8.32357759 7 10 C10.14221967 9.68493373 10.14221967 9.68493373 13 9 C26.70743979 26.03824923 26.70743979 26.03824923 28 35 C33.08303686 35.11320856 33.08303686 35.11320856 38 34 C37.34 35.32 36.68 36.64 36 38 C28.78195489 38.48120301 28.78195489 38.48120301 25.5625 36.5 C23.69623129 33.51397006 23.59845061 31.3530648 23.34765625 27.90625 C22.82616369 25.0468301 21.2344029 23.72986031 19 22 C18.01 22.33 17.02 22.66 16 23 C15.67 24.98 15.34 26.96 15 29 C14.67 29 14.34 29 14 29 C14 26.36 14 23.72 14 21 C14.99 20.67 15.98 20.34 17 20 C15.92598892 17.08482708 15.22189824 15.22189824 13 13 C11.553178 12.67320816 10.09160747 12.40919648 8.625 12.1875 C5.25526537 11.48750682 4.10890455 11.0956235 1.4375 8.75 C-0.22168673 5.57590364 -0.32865839 3.53307768 0 0 Z " fill="#615078" transform="translate(21,26)"/>
<path d="M0 0 C1.98 0 3.96 0 6 0 C5.70887831 6.41923331 4.54784971 10.62100206 1 16 C0 13 0 13 0 9 C-0.37125 8.360625 -0.7425 7.72125 -1.125 7.0625 C-2 5 -2 5 -1.125 2.25 C-0.75375 1.5075 -0.3825 0.765 0 0 Z " fill="#E9BF8A" transform="translate(52,33)"/>
<path d="M0 0 C1.65 0 3.3 0 5 0 C6.31501363 2.16590481 7.03022952 3.50121292 6.875 6.0625 C5.74991319 8.55376366 4.26725953 9.53725191 2 11 C0.19769832 7.17010894 -0.19622241 4.21878192 0 0 Z " fill="#EEC389" transform="translate(6,33)"/>
<path d="M0 0 C0.33 0 0.66 0 1 0 C1.66 2.64 2.32 5.28 3 8 C8.08303686 8.11320856 8.08303686 8.11320856 13 7 C12.34 8.32 11.68 9.64 11 11 C3.78846154 11.48076923 3.78846154 11.48076923 0.4375 9.4375 C-1.58093918 6.01492921 -0.87061285 3.77265569 0 0 Z " fill="#4A4570" transform="translate(46,53)"/>
<path d="M0 0 C2.875 -0.125 2.875 -0.125 6 0 C6.66 0.66 7.32 1.32 8 2 C7.44444444 6.55555556 7.44444444 6.55555556 6 8 C4.33382885 8.04063832 2.66611905 8.042721 1 8 C-1.125 3.375 -1.125 3.375 0 0 Z M3 1 C2.01 2.485 2.01 2.485 1 4 C2.98 4.99 2.98 4.99 5 6 C5.33 5.01 5.66 4.02 6 3 C5.67 2.34 5.34 1.68 5 1 C4.34 1 3.68 1 3 1 Z " fill="#504B77" transform="translate(49,53)"/>
<path d="M0 0 C2.33294775 -0.04241723 4.66702567 -0.04092937 7 0 C8 1 8 1 8.1875 4.4375 C8 8 8 8 6 10 C2.5 10.3125 2.5 10.3125 -1 10 C-3.1519437 6.77208445 -3.20086443 5.71599191 -3 2 C-0.64046906 4.35953094 -0.50858587 5.77895617 0 9 C1.65 8.67 3.3 8.34 5 8 C5.33 6.35 5.66 4.7 6 3 C4.02 2.34 2.04 1.68 0 1 C0 0.67 0 0.34 0 0 Z " fill="#91B0D6" transform="translate(50,52)"/>
<path d="M0 0 C3.14839906 -0.34982212 4.62023779 -0.24633224 7.3125 1.5 C9.76157308 5.12825641 9.28810652 7.67840225 9 12 C8.34 11.67 7.68 11.34 7 11 C6.59270772 8.67843403 6.25561323 6.3431213 6 4 C4.02 3.34 2.04 2.68 0 2 C0 1.34 0 0.68 0 0 Z " fill="#53507E" transform="translate(51,49)"/>
<path d="M0 0 C3.16115776 1.36983503 3.9927092 1.9890638 6 5 C5.01 5.33 4.02 5.66 3 6 C5.475 6.99 5.475 6.99 8 8 C7.67 8.66 7.34 9.32 7 10 C3.34683329 8.75023244 2.21934164 8.32901247 0 5 C-0.125 2.3125 -0.125 2.3125 0 0 Z " fill="#686386" transform="translate(25,26)"/>
<path d="M0 0 C0.66 0 1.32 0 2 0 C3.32 2.64 4.64 5.28 6 8 C4.35 8 2.7 8 1 8 C0.34 5.69 -0.32 3.38 -1 1 C-0.67 0.67 -0.34 0.34 0 0 Z " fill="#ECC289" transform="translate(51,15)"/>
<path d="M0 0 C2.24678829 1.64764474 2.97329649 2.74503142 3.875 5.375 C4 8.125 4 8.125 3.875 10.375 C2.885 10.87 2.885 10.87 1.875 11.375 C1.75125 10.26125 1.6275 9.1475 1.5 8 C1.2284187 4.34396323 1.2284187 4.34396323 -1.125 2.375 C-3.69561311 1.72732207 -3.69561311 1.72732207 -6.125 1.375 C-2.73486547 -0.8043722 -2.73486547 -0.8043722 0 0 Z " fill="#CBA784" transform="translate(37.125,20.625)"/>
<path d="M0 0 C1.32 0 2.64 0 4 0 C4 3.3 4 6.6 4 10 C1.69 9.67 -0.62 9.34 -3 9 C-3 8.67 -3 8.34 -3 8 C-1.35 8 0.3 8 2 8 C2 5.69 2 3.38 2 1 C1.34 0.67 0.68 0.34 0 0 Z " fill="#504472" transform="translate(56,23)"/>
<path d="M0 0 C0.66 0 1.32 0 2 0 C1.125 5.75 1.125 5.75 0 8 C-1.32 7.67 -2.64 7.34 -4 7 C-2.68 4.69 -1.36 2.38 0 0 Z " fill="#EBBF88" transform="translate(11,15)"/>
<path d="M0 0 C1.65 0 3.3 0 5 0 C4.01 0.33 3.02 0.66 2 1 C2.33 3.97 2.66 6.94 3 10 C2.01 9.67 1.02 9.34 0 9 C0 6.03 0 3.06 0 0 Z " fill="#4D4271" transform="translate(3,23)"/>
<path d="M0 0 C2.01822917 0.29296875 4.03645833 0.5859375 6.0546875 0.87890625 C8.08140667 1.1684297 8.08140667 1.1684297 10 0 C10.66 0.66 11.32 1.32 12 2 C9.525 3.485 9.525 3.485 7 5 C3.535 3.02 3.535 3.02 0 1 C0 0.67 0 0.34 0 0 Z " fill="#A4847F" transform="translate(37,6)"/>
</svg>
