<?xml version="1.0" encoding="UTF-8"?>
<svg version="1.1" xmlns="http://www.w3.org/2000/svg" width="64" height="64">
<path d="M0 0 C1.32 0 2.64 0 4 0 C3.7215625 1.4540625 3.7215625 1.4540625 3.4375 2.9375 C3.293125 3.948125 3.14875 4.95875 3 6 C3.495 6.495 3.495 6.495 4 7 C4.08737645 8.85369611 4.10698153 10.71067541 4.09765625 12.56640625 C4.09443359 13.69111328 4.09121094 14.81582031 4.08789062 15.97460938 C4.07532227 17.75061523 4.07532227 17.75061523 4.0625 19.5625 C4.05798828 20.75037109 4.05347656 21.93824219 4.04882812 23.16210938 C4.03699675 26.10812226 4.02051287 29.05403681 4 32 C-1.75 30.125 -1.75 30.125 -4 29 C-5.5669176 28.88664273 -7.1383814 28.8333501 -8.70922852 28.81054688 C-9.68686661 28.79382935 -10.6645047 28.77711182 -11.67176819 28.7598877 C-12.73012375 28.74631226 -13.78847931 28.73273682 -14.87890625 28.71875 C-16.5025132 28.69113586 -16.5025132 28.69113586 -18.15892029 28.66296387 C-22.80563199 28.58406159 -27.45249245 28.51639688 -32.09936523 28.44775391 C-35.48428848 28.39616962 -38.86908126 28.33886968 -42.25390625 28.28125 C-43.84447594 28.26088684 -43.84447594 28.26088684 -45.46717834 28.2401123 C-46.92890724 28.21503601 -46.92890724 28.21503601 -48.42016602 28.18945312 C-49.28239273 28.17692505 -50.14461945 28.16439697 -51.03297424 28.15148926 C-53 28 -53 28 -54 27 C-54.09880797 25.52347336 -54.13079245 24.04232764 -54.1328125 22.5625 C-54.13410156 21.66789062 -54.13539062 20.77328125 -54.13671875 19.8515625 C-54.13091797 18.44003906 -54.13091797 18.44003906 -54.125 17 C-54.12886719 16.05898438 -54.13273437 15.11796875 -54.13671875 14.1484375 C-54.13542969 13.25382812 -54.13414063 12.35921875 -54.1328125 11.4375 C-54.13112061 10.19806641 -54.13112061 10.19806641 -54.12939453 8.93359375 C-54 7 -54 7 -53 6 C-51.5224043 5.90357241 -50.04030886 5.87484454 -48.55957031 5.87402344 C-47.61478821 5.87021667 -46.6700061 5.86640991 -45.69659424 5.86248779 C-44.15295197 5.86094696 -44.15295197 5.86094696 -42.578125 5.859375 C-40.41665615 5.84104449 -38.25519753 5.82147396 -36.09375 5.80078125 C-32.67235148 5.77181131 -29.25160724 5.75000023 -25.83007812 5.74951172 C-22.53716416 5.74617881 -19.24577464 5.71163023 -15.953125 5.671875 C-14.42162811 5.68247955 -14.42162811 5.68247955 -12.85919189 5.69329834 C-6.92472525 5.65817213 -6.92472525 5.65817213 -2.06542969 2.45800781 C-1.38383789 1.64686523 -0.70224609 0.83572266 0 0 Z " fill="#D98C19" transform="translate(57,29)"/>
<path d="M0 0 C1.11785889 -0.00315216 2.23571777 -0.00630432 3.38745117 -0.009552 C5.21240112 -0.00651566 5.21240112 -0.00651566 7.07421875 -0.00341797 C8.31341064 -0.00437469 9.55260254 -0.00533142 10.8293457 -0.00631714 C13.45560156 -0.00699921 16.08176508 -0.00564085 18.70800781 -0.00097656 C22.08100589 0.00472073 25.4539244 0.00144151 28.82691956 -0.00454903 C32.03435552 -0.00902317 35.24178175 -0.00589429 38.44921875 -0.00341797 C39.66585205 -0.0054422 40.88248535 -0.00746643 42.13598633 -0.009552 C43.81277466 -0.00482376 43.81277466 -0.00482376 45.5234375 0 C46.51303467 0.00079559 47.50263184 0.00159119 48.5222168 0.00241089 C50.76171875 0.12939453 50.76171875 0.12939453 51.76171875 1.12939453 C51.86052672 2.60592117 51.8925112 4.08706689 51.89453125 5.56689453 C51.89646484 6.90880859 51.89646484 6.90880859 51.8984375 8.27783203 C51.89457031 9.21884766 51.89070313 10.15986328 51.88671875 11.12939453 C51.89251953 12.54091797 51.89251953 12.54091797 51.8984375 13.98095703 C51.89714844 14.87556641 51.89585938 15.77017578 51.89453125 16.69189453 C51.89340332 17.51818359 51.89227539 18.34447266 51.89111328 19.19580078 C51.76171875 21.12939453 51.76171875 21.12939453 50.76171875 22.12939453 C49.25914666 22.23629652 47.75168748 22.27560028 46.24536133 22.28710938 C45.28378616 22.29737152 44.322211 22.30763367 43.33149719 22.31820679 C42.28366562 22.32550812 41.23583405 22.33280945 40.15625 22.34033203 C37.95376874 22.36841073 35.75129488 22.39707526 33.54882812 22.42626953 C30.06404912 22.46748339 26.57940684 22.50435522 23.09448242 22.53076172 C19.73977758 22.55840973 16.38570904 22.60429603 13.03125 22.65283203 C11.99353958 22.6560849 10.95582916 22.65933777 9.88667297 22.66268921 C4.36450351 22.7562935 0.60176333 23.18973256 -4.23828125 26.12939453 C-4.89828125 26.12939453 -5.55828125 26.12939453 -6.23828125 26.12939453 C-6.26714876 21.98357567 -6.28503452 17.83778237 -6.30078125 13.69189453 C-6.30916016 12.50789062 -6.31753906 11.32388672 -6.32617188 10.10400391 C-6.32939453 8.97929687 -6.33261719 7.85458984 -6.3359375 6.69580078 C-6.34117432 5.65367432 -6.34641113 4.61154785 -6.35180664 3.5378418 C-6.14289196 -0.89429439 -3.89847469 0.0031342 0 0 Z " fill="#2E73AB" transform="translate(9.23828125,2.87060546875)"/>
<path d="M0 0 C-0.2784375 1.4540625 -0.2784375 1.4540625 -0.5625 2.9375 C-0.706875 3.948125 -0.85125 4.95875 -1 6 C-0.505 6.495 -0.505 6.495 0 7 C0.08737645 8.85369611 0.10698153 10.71067541 0.09765625 12.56640625 C0.09443359 13.69111328 0.09121094 14.81582031 0.08789062 15.97460938 C0.07532227 17.75061523 0.07532227 17.75061523 0.0625 19.5625 C0.05798828 20.75037109 0.05347656 21.93824219 0.04882812 23.16210938 C0.03699675 26.10812226 0.02051287 29.05403681 0 32 C-5.75 30.125 -5.75 30.125 -8 29 C-9.5669176 28.88664273 -11.1383814 28.8333501 -12.70922852 28.81054688 C-13.68686661 28.79382935 -14.6645047 28.77711182 -15.67176819 28.7598877 C-16.73012375 28.74631226 -17.78847931 28.73273682 -18.87890625 28.71875 C-20.5025132 28.69113586 -20.5025132 28.69113586 -22.15892029 28.66296387 C-26.80563199 28.58406159 -31.45249245 28.51639688 -36.09936523 28.44775391 C-39.48428848 28.39616962 -42.86908126 28.33886968 -46.25390625 28.28125 C-47.84447594 28.26088684 -47.84447594 28.26088684 -49.46717834 28.2401123 C-50.92890724 28.21503601 -50.92890724 28.21503601 -52.42016602 28.18945312 C-53.28239273 28.17692505 -54.14461945 28.16439697 -55.03297424 28.15148926 C-57 28 -57 28 -58 27 C-58.04063832 25.33382885 -58.042721 23.66611905 -58 22 C-56.50218994 21.970271 -56.50218994 21.970271 -54.97412109 21.93994141 C-51.25024268 21.86355736 -47.52673839 21.774892 -43.80322266 21.68261719 C-42.19522518 21.64446241 -40.58714627 21.60958652 -38.97900391 21.578125 C-36.66018684 21.5321794 -34.3419238 21.47423619 -32.0234375 21.4140625 C-31.31069672 21.40251129 -30.59795593 21.39096008 -29.86361694 21.37905884 C-25.56588751 21.25352521 -22.00423744 20.56115961 -18 19 C-17.979375 18.319375 -17.95875 17.63875 -17.9375 16.9375 C-16.73673091 13.1750902 -14.75245015 11.50138795 -11.90625 8.84765625 C-9.49901541 6.51441452 -7.48736066 3.94740375 -5.45703125 1.28515625 C-4 0 -4 0 0 0 Z " fill="#BE7C14" transform="translate(61,29)"/>
<path d="M0 0 C0.86825912 0.00222061 1.73651825 0.00444122 2.63108826 0.00672913 C3.61202957 0.00680466 4.59297089 0.00688019 5.6036377 0.00695801 C6.6702916 0.01211929 7.7369455 0.01728058 8.83592224 0.02259827 C9.92211349 0.02401321 11.00830475 0.02542816 12.12741089 0.02688599 C15.61230674 0.03250403 19.09713941 0.04505959 22.58201599 0.05775452 C24.93813486 0.06276719 27.29425473 0.0673305 29.65037537 0.07142639 C35.44011063 0.08247933 41.2298088 0.09923501 47.01951599 0.12025452 C46.35951599 2.43025452 45.69951599 4.74025452 45.01951599 7.12025452 C44.02951599 6.79025452 43.03951599 6.46025452 42.01951599 6.12025452 C41.68951599 7.11025452 41.35951599 8.10025452 41.01951599 9.12025452 C40.02951599 9.12025452 39.03951599 9.12025452 38.01951599 9.12025452 C38.51451599 11.10025452 38.51451599 11.10025452 39.01951599 13.12025452 C35.51174815 14.72380553 32.8759672 15.34062316 29.01951599 15.12025452 C29.52555591 12.951512 30.01935412 11.12057825 31.01951599 9.12025452 C29.69951599 8.79025452 28.37951599 8.46025452 27.01951599 8.12025452 C27.01951599 7.46025452 27.01951599 6.80025452 27.01951599 6.12025452 C26.35951599 6.12025452 25.69951599 6.12025452 25.01951599 6.12025452 C24.68951599 7.11025452 24.35951599 8.10025452 24.01951599 9.12025452 C23.02951599 9.12025452 22.03951599 9.12025452 21.01951599 9.12025452 C22.00951599 10.60525452 22.00951599 10.60525452 23.01951599 12.12025452 C23.01951599 13.11025452 23.01951599 14.10025452 23.01951599 15.12025452 C19.38951599 15.12025452 15.75951599 15.12025452 12.01951599 15.12025452 C13.01951599 11.12025452 13.01951599 11.12025452 14.01951599 9.12025452 C12.69951599 8.79025452 11.37951599 8.46025452 10.01951599 8.12025452 C10.01951599 7.46025452 10.01951599 6.80025452 10.01951599 6.12025452 C9.35951599 6.12025452 8.69951599 6.12025452 8.01951599 6.12025452 C7.68951599 7.11025452 7.35951599 8.10025452 7.01951599 9.12025452 C6.02951599 9.12025452 5.03951599 9.12025452 4.01951599 9.12025452 C5.00951599 10.60525452 5.00951599 10.60525452 6.01951599 12.12025452 C6.01951599 13.11025452 6.01951599 14.10025452 6.01951599 15.12025452 C3.04951599 15.12025452 0.07951599 15.12025452 -2.98048401 15.12025452 C-3.00733813 12.8078166 -3.02681242 10.49529182 -3.04298401 8.18275452 C-3.05458557 6.89498108 -3.06618713 5.60720764 -3.07814026 4.28041077 C-2.95140348 0.17920852 -2.95140348 0.17920852 0 0 Z " fill="#378FD5" transform="translate(5.9804840087890625,2.8797454833984375)"/>
<path d="M0 0 C-0.4303821 4.78483626 -2.20257483 6.52339755 -5.8125 9.5625 C-9.60303032 12.78420145 -9.60303032 12.78420145 -13.13671875 16.27734375 C-15 18 -15 18 -18 18 C-17.42402981 14.56661927 -16.34868105 13.0333275 -13.8125 10.6875 C-10.71028304 7.75056509 -8.0459561 4.67985598 -5.45703125 1.28515625 C-4 0 -4 0 0 0 Z " fill="#989B9E" transform="translate(61,29)"/>
<path d="M0 0 C0.66 0 1.32 0 2 0 C2.33 0.66 2.66 1.32 3 2 C3.99 2.33 4.98 2.66 6 3 C5.34 5.31 4.68 7.62 4 10 C2.02 10 0.04 10 -2 10 C-2.66 7.69 -3.32 5.38 -4 3 C-3.01 2.67 -2.02 2.34 -1 2 C-0.67 1.34 -0.34 0.68 0 0 Z " fill="#EDA21B" transform="translate(48,9)"/>
<path d="M0 0 C0.66 0 1.32 0 2 0 C2.33 0.66 2.66 1.32 3 2 C3.99 2.33 4.98 2.66 6 3 C5.34 5.31 4.68 7.62 4 10 C2.02 10 0.04 10 -2 10 C-2.66 7.69 -3.32 5.38 -4 3 C-3.01 2.67 -2.02 2.34 -1 2 C-0.67 1.34 -0.34 0.68 0 0 Z " fill="#EEA31C" transform="translate(31,9)"/>
<path d="M0 0 C0.66 0 1.32 0 2 0 C2.33 0.66 2.66 1.32 3 2 C3.99 2.33 4.98 2.66 6 3 C5.34 5.31 4.68 7.62 4 10 C2.02 10 0.04 10 -2 10 C-2.66 7.69 -3.32 5.38 -4 3 C-3.01 2.67 -2.02 2.34 -1 2 C-0.67 1.34 -0.34 0.68 0 0 Z " fill="#EEA31C" transform="translate(14,9)"/>
<path d="M0 0 C0.33 0.99 0.66 1.98 1 3 C-2.96 6.96 -6.92 10.92 -11 15 C-11 10.66825307 -8.34177417 8.77646347 -5.5 5.8125 C-4.97535156 5.25369141 -4.45070313 4.69488281 -3.91015625 4.11914062 C-2.61338387 2.73984636 -1.30753741 1.36909356 0 0 Z " fill="#D1D1CF" transform="translate(56,30)"/>
</svg>
