<?xml version="1.0" encoding="UTF-8"?>
<svg version="1.1" xmlns="http://www.w3.org/2000/svg" width="64" height="64">
<path d="M0 0 C0.81146484 -0.01611328 1.62292969 -0.03222656 2.45898438 -0.04882812 C6.00649132 -0.0517383 8.42686211 -0.01651318 11.61328125 1.6328125 C13.0625 3.3125 13.0625 3.3125 13.3125 6.5 C13.23 7.428125 13.1475 8.35625 13.0625 9.3125 C13.866875 9.291875 14.67125 9.27125 15.5 9.25 C18.0625 9.3125 18.0625 9.3125 19.0625 10.3125 C19.25 12.75 19.25 12.75 19.0625 15.3125 C18.4025 15.9725 17.7425 16.6325 17.0625 17.3125 C16.93355405 19.97711907 16.93355405 19.97711907 17.125 23 C17.2341088 28.33349506 16.60215649 31.6564631 14.0625 36.3125 C11.72955225 36.35491723 9.39547433 36.35342937 7.0625 36.3125 C6.5675 35.8175 6.5675 35.8175 6.0625 35.3125 C6.0625 33.6625 6.0625 32.0125 6.0625 30.3125 C2.1025 30.3125 -1.8575 30.3125 -5.9375 30.3125 C-5.9375 31.9625 -5.9375 33.6125 -5.9375 35.3125 C-6.9375 36.3125 -6.9375 36.3125 -10.5 36.375 C-11.634375 36.354375 -12.76875 36.33375 -13.9375 36.3125 C-17.00888406 30.68162922 -17.15963539 26.26229255 -16.84765625 19.88671875 C-16.65038335 17.14494163 -16.65038335 17.14494163 -18.9375 15.3125 C-19.125 12.75 -19.125 12.75 -18.9375 10.3125 C-17.9375 9.3125 -17.9375 9.3125 -15.375 9.25 C-14.570625 9.270625 -13.76625 9.29125 -12.9375 9.3125 C-12.7828125 7.641875 -12.7828125 7.641875 -12.625 5.9375 C-12.398125 4.74125 -12.17125 3.545 -11.9375 2.3125 C-7.87864966 -0.39340023 -4.7623546 -0.01882354 0 0 Z " fill="#272625" transform="translate(34.9375,25.6875)"/>
<path d="M0 0 C2.87029869 1.79393668 4.49131638 2.98263276 6 6 C6.3506291 11.34709374 6.44403637 14.62872307 3 19 C2.34 19.33 1.68 19.66 1 20 C0.67 34.52 0.34 49.04 0 64 C-2.97 64 -5.94 64 -9 64 C-9 49.48 -9 34.96 -9 20 C-10.32 19.34 -11.64 18.68 -13 18 C-15.6790573 13.98141405 -15.69610694 10.72358279 -15 6 C-11.10231905 -0.23628951 -6.98983895 -0.90541955 0 0 Z " fill="#100D0A" transform="translate(15,0)"/>
<path d="M0 0 C2.97 0 5.94 0 9 0 C9 21.12 9 42.24 9 64 C6.03 64 3.06 64 0 64 C0 42.88 0 21.76 0 0 Z " fill="#0B0806" transform="translate(55,0)"/>
<path d="M0 0 C0.83724609 -0.01224609 1.67449219 -0.02449219 2.53710938 -0.03710938 C3.73883789 -0.04000977 3.73883789 -0.04000977 4.96484375 -0.04296875 C5.70210693 -0.04707764 6.43937012 -0.05118652 7.19897461 -0.05541992 C9.0625 0.1875 9.0625 0.1875 11.0625 2.1875 C11.29296875 4.28125 11.29296875 4.28125 11.25 6.6875 C11.24355469 7.4815625 11.23710938 8.275625 11.23046875 9.09375 C11.0625 11.1875 11.0625 11.1875 10.0625 13.1875 C11.0525 13.1875 12.0425 13.1875 13.0625 13.1875 C12.7325 14.1775 12.4025 15.1675 12.0625 16.1875 C11.4025 16.1875 10.7425 16.1875 10.0625 16.1875 C9.0725 18.6625 9.0725 18.6625 8.0625 21.1875 C5.4566111 21.32244246 2.85767889 21.42152299 0.25 21.5 C-0.48798828 21.54189453 -1.22597656 21.58378906 -1.98632812 21.62695312 C-4.14453125 21.67578125 -4.14453125 21.67578125 -7.9375 21.1875 C-9.82421875 18.73046875 -9.82421875 18.73046875 -10.9375 16.1875 C-11.5975 15.8575 -12.2575 15.5275 -12.9375 15.1875 C-12.6075 14.1975 -12.2775 13.2075 -11.9375 12.1875 C-11.2775 12.1875 -10.6175 12.1875 -9.9375 12.1875 C-9.94910156 11.40503906 -9.96070313 10.62257813 -9.97265625 9.81640625 C-9.98167969 8.80449219 -9.99070312 7.79257812 -10 6.75 C-10.01160156 5.74066406 -10.02320313 4.73132812 -10.03515625 3.69140625 C-9.81848167 -1.86412998 -4.32860046 0.00331694 0 0 Z " fill="#140D10" transform="translate(34.9375,28.8125)"/>
<path d="M0 0 C3.8425303 0.72047443 5.45767292 1.57152696 8 4.5625 C8.94237143 8.56143269 8.61136591 11.54355682 6.5 15.0625 C2.98105682 17.17386591 -0.00106731 17.50487143 -4 16.5625 C-6.99097304 14.02017292 -7.84202557 12.4050303 -8.5625 8.5625 C-7.62098494 3.54108633 -5.02141367 0.94151506 0 0 Z " fill="#C0C5CC" transform="translate(10,1.4375)"/>
<path d="M0 0 C1.32 0 2.64 0 4 0 C4 10.23 4 20.46 4 31 C2.68 31 1.36 31 0 31 C0 20.77 0 10.54 0 0 Z " fill="#CF9D6A" transform="translate(58,33)"/>
<path d="M0 0 C1.32 0 2.64 0 4 0 C4 10.23 4 20.46 4 31 C2.68 31 1.36 31 0 31 C0 20.77 0 10.54 0 0 Z " fill="#C59565" transform="translate(8,33)"/>
<path d="M0 0 C0.66 0 1.32 0 2 0 C2.391875 0.81339844 2.78375 1.62679687 3.1875 2.46484375 C4.81092806 5.35012935 4.81092806 5.35012935 8.25 5.62890625 C9.4875 5.60699219 10.725 5.58507813 12 5.5625 C13.2375 5.56378906 14.475 5.56507812 15.75 5.56640625 C19.08222234 5.34009182 19.08222234 5.34009182 20.75 2.96484375 C21.1625 2.31644531 21.575 1.66804688 22 1 C22.99 1 23.98 1 25 1 C24.67 1.99 24.34 2.98 24 4 C23.34 4 22.68 4 22 4 C21.34 5.65 20.68 7.3 20 9 C17.3941111 9.13494246 14.79517889 9.23402299 12.1875 9.3125 C11.08051758 9.3753418 11.08051758 9.3753418 9.95117188 9.43945312 C7.79296875 9.48828125 7.79296875 9.48828125 4 9 C2.11328125 6.54296875 2.11328125 6.54296875 1 4 C0.34 3.67 -0.32 3.34 -1 3 C-0.67 2.01 -0.34 1.02 0 0 Z " fill="#A9515E" transform="translate(23,41)"/>
<path d="M0 0 C3.96 0 7.92 0 12 0 C12 1.98 12 3.96 12 6 C8.04 6 4.08 6 0 6 C0 4.02 0 2.04 0 0 Z " fill="#69D6F4" transform="translate(29,33)"/>
<path d="M0 0 C0.804375 -0.00128906 1.60875 -0.00257812 2.4375 -0.00390625 C3.283125 -0.00003906 4.12875 0.00382812 5 0.0078125 C6.2684375 0.00201172 6.2684375 0.00201172 7.5625 -0.00390625 C8.366875 -0.00261719 9.17125 -0.00132813 10 0 C10.7425 0.00112793 11.485 0.00225586 12.25 0.00341797 C14 0.1328125 14 0.1328125 15 1.1328125 C15.07179964 2.65209288 15.08392007 4.17448732 15.0625 5.6953125 C15.05347656 6.52160156 15.04445313 7.34789062 15.03515625 8.19921875 C15.02355469 8.83730469 15.01195313 9.47539063 15 10.1328125 C14.34 10.1328125 13.68 10.1328125 13 10.1328125 C13 7.4928125 13 4.8528125 13 2.1328125 C8.05 2.4628125 3.1 2.7928125 -2 3.1328125 C-2.33 5.4428125 -2.66 7.7528125 -3 10.1328125 C-3.66 10.1328125 -4.32 10.1328125 -5 10.1328125 C-5.02689216 8.65374358 -5.04634621 7.17453767 -5.0625 5.6953125 C-5.07410156 4.87160156 -5.08570312 4.04789063 -5.09765625 3.19921875 C-4.92355418 -0.48478099 -3.2391968 0.00492065 0 0 Z " fill="#E26C7D" transform="translate(30,28.8671875)"/>
<path d="M0 0 C5.28 0 10.56 0 16 0 C15.34 1.32 14.68 2.64 14 4 C10.04 4 6.08 4 2 4 C1.34 2.68 0.68 1.36 0 0 Z " fill="#D64C5B" transform="translate(27,41)"/>
<path d="M0 0 C1.65 0 3.3 0 5 0 C5.63019694 9.01531729 5.63019694 9.01531729 3 13.125 C2.34 13.74375 1.68 14.3625 1 15 C1.33 12.69 1.66 10.38 2 8 C1.34 8 0.68 8 0 8 C0 5.36 0 2.72 0 0 Z " fill="#6A5137" transform="translate(57,12)"/>
<path d="M0 0 C1.65 0 3.3 0 5 0 C5.33 1.65 5.66 3.3 6 5 C4.68 5.33 3.36 5.66 2 6 C2 7.65 2 9.3 2 11 C1.34 11 0.68 11 0 11 C0 7.37 0 3.74 0 0 Z " fill="#28292B" transform="translate(8,5)"/>
<path d="M0 0 C0.99 0 1.98 0 3 0 C2.67 0.99 2.34 1.98 2 3 C1.34 3 0.68 3 0 3 C-0.33 4.32 -0.66 5.64 -1 7 C-5.62 7 -10.24 7 -15 7 C-15 6.67 -15 6.34 -15 6 C-14.33613281 5.98582031 -13.67226563 5.97164062 -12.98828125 5.95703125 C-6.99218282 5.68173502 -6.99218282 5.68173502 -2.0625 2.4375 C-1.381875 1.633125 -0.70125 0.82875 0 0 Z " fill="#DE6B7B" transform="translate(45,42)"/>
<path d="M0 0 C1.32 0 2.64 0 4 0 C4 2.64 4 5.28 4 8 C2.68 8 1.36 8 0 8 C0 5.36 0 2.72 0 0 Z " fill="#CD9B69" transform="translate(58,2)"/>
<path d="M0 0 C0.66 0.33 1.32 0.66 2 1 C1.67 3.97 1.34 6.94 1 10 C0.34 10 -0.32 10 -1 10 C-1.02689216 8.52093108 -1.04634621 7.04172517 -1.0625 5.5625 C-1.07410156 4.73878906 -1.08570312 3.91507813 -1.09765625 3.06640625 C-1 1 -1 1 0 0 Z " fill="#D86878" transform="translate(26,29)"/>
<path d="M0 0 C1.65 0.33 3.3 0.66 5 1 C5 1.66 5 2.32 5 3 C3.02 3 1.04 3 -1 3 C-0.67 2.01 -0.34 1.02 0 0 Z M-2 3 C-1.34 3.66 -0.68 4.32 0 5 C-0.66 5 -1.32 5 -2 5 C-2 4.34 -2 3.68 -2 3 Z " fill="#58545A" transform="translate(47,37)"/>
<path d="M0 0 C1.32 0 2.64 0 4 0 C2.92598892 2.91517292 2.22189824 4.77810176 0 7 C0 4.69 0 2.38 0 0 Z " fill="#AF855A" transform="translate(8,21)"/>
<path d="M0 0 C1.9375 0.3125 1.9375 0.3125 4 1 C4.33 1.99 4.66 2.98 5 4 C3.35 4 1.7 4 0 4 C0 2.68 0 1.36 0 0 Z " fill="#A48C49" transform="translate(20,46)"/>
<path d="M0 0 C1.32 0 2.64 0 4 0 C2.92598892 2.91517292 2.22189824 4.77810176 0 7 C0 4.69 0 2.38 0 0 Z " fill="#B28865" transform="translate(58,12)"/>
</svg>
