<?xml version="1.0" encoding="UTF-8"?>
<svg version="1.1" xmlns="http://www.w3.org/2000/svg" width="64" height="64">
<path d="M0 0 C1.90657523 2.49707115 1.70692578 4.21440846 1.6574707 7.33007812 C1.64296875 8.93979492 1.64296875 8.93979492 1.62817383 10.58203125 C1.60303711 11.70158203 1.57790039 12.82113281 1.55200195 13.97460938 C1.53169922 15.67133789 1.53169922 15.67133789 1.51098633 17.40234375 C1.47560153 20.19774255 1.42623144 22.9921883 1.36450195 25.78710938 C1.98591064 25.97611816 2.60731934 26.16512695 3.24755859 26.35986328 C4.06087646 26.61687012 4.87419434 26.87387695 5.7121582 27.13867188 C6.51919189 27.38955566 7.32622559 27.64043945 8.15771484 27.89892578 C11.31686762 29.17041575 12.64365771 30.89609105 14.36450195 33.78710938 C14.79762695 34.50898437 15.23075195 35.23085938 15.67700195 35.97460938 C16.92596646 41.08400965 16.81015406 46.28924212 14.13012695 50.91992188 C11.3543155 54.33960712 8.77272968 56.84248915 4.36450195 57.78710938 C-1.30299348 58.2369106 -4.73544302 57.94492261 -9.63549805 54.78710938 C-10.35737305 53.90023437 -11.07924805 53.01335938 -11.82299805 52.09960938 C-15.58181097 49.00902986 -17.8750517 49.5781254 -22.58081055 49.79492188 C-28.46020942 49.77988505 -34.88008364 48.71662699 -39.76220703 45.29785156 C-42.56052458 41.54731101 -42.24670423 38.13744125 -42.23706055 33.56835938 C-42.2456308 32.67346802 -42.25420105 31.77857666 -42.26303101 30.85656738 C-42.27450207 28.96707541 -42.27552939 27.07749512 -42.2668457 25.18798828 C-42.26051821 22.29632258 -42.30746672 19.40873858 -42.3581543 16.51757812 C-42.36269992 14.6803437 -42.36410744 12.84309828 -42.36206055 11.00585938 C-42.38048004 10.14222778 -42.39889954 9.27859619 -42.4178772 8.38879395 C-42.38160028 6.03692333 -42.29001303 4.0470924 -41.63549805 1.78710938 C-32.01717713 -6.54441766 -10.35840504 -7.68182658 0 0 Z " fill="#FED065" transform="translate(44.635498046875,5.212890625)"/>
<path d="M0 0 C1.69270833 1.00911458 3.38541667 2.01822917 5.078125 3.02734375 C10.17242627 5.6055572 15.54589231 5.2188318 21.125 5.25 C22.47464844 5.2809375 22.47464844 5.2809375 23.8515625 5.3125 C30.37125615 5.3499695 35.8705325 4.19845115 42 2 C42 4.31 42 6.62 42 9 C41.32453125 9.20753906 40.6490625 9.41507813 39.953125 9.62890625 C33.83073221 11.65516472 33.83073221 11.65516472 29.375 16.0625 C27.46294362 20.14451805 27.73420395 24.3217756 27.95703125 28.7421875 C27.97121094 29.48726562 27.98539063 30.23234375 28 31 C26.34784709 32.65215291 24.46179221 32.21095636 22.1875 32.25 C15.38030823 32.17890661 7.35881741 31.66712712 1.86010742 27.30078125 C-0.50374468 24.37691431 -0.46657069 22.86196367 -0.390625 19.140625 C-0.37773438 18.02558594 -0.36484375 16.91054688 -0.3515625 15.76171875 C-0.31804687 14.60285156 -0.28453125 13.44398437 -0.25 12.25 C-0.23195312 11.07566406 -0.21390625 9.90132812 -0.1953125 8.69140625 C-0.1481912 5.7934466 -0.08241305 2.89713582 0 0 Z " fill="#F4C463" transform="translate(3,23)"/>
<path d="M0 0 C4.00316971 3.81254258 6.33910467 7.40360817 6.85546875 12.99609375 C6.62490858 18.60639128 5.18838571 22.17016842 1.2265625 26.16015625 C-2.67165973 29.42135192 -6.33748636 29.9021426 -11.38671875 29.75 C-15.85480419 29.18819751 -18.64807351 27.26621982 -21.6875 24.0625 C-24.67712159 19.52270426 -25.07985089 14.88707467 -24.375 9.5 C-22.92884469 5.1876694 -20.83084302 2.85555756 -17.25 0.0625 C-11.58532268 -2.75156551 -5.68782868 -2.52792386 0 0 Z " fill="#9BCBE6" transform="translate(54.375,33.5)"/>
<path d="M0 0 C1.8203125 1.453125 1.8203125 1.453125 3 3 C3.25 5.4375 3.25 5.4375 2 8 C-7.75066747 14.2445764 -19.83120333 14.03074586 -30.765625 11.63671875 C-34.60992237 10.54122842 -37.20542506 8.79457494 -40 6 C-39.85546875 4.01171875 -39.85546875 4.01171875 -39 2 C-37.36328125 0.76953125 -37.36328125 0.76953125 -35.3125 -0.1875 C-34.64863281 -0.51105469 -33.98476563 -0.83460937 -33.30078125 -1.16796875 C-22.97949765 -4.90045331 -10.11644935 -3.90205904 0 0 Z " fill="#FFE076" transform="translate(43,4)"/>
<path d="M0 0 C0 0.99 0 1.98 0 3 C0.66 3 1.32 3 2 3 C2 2.01 2 1.02 2 0 C5.08917348 0.3432415 6.77105979 0.82193539 9.25 2.75 C11.17806461 5.22894021 11.6567585 6.91082652 12 10 C11.01 10 10.02 10 9 10 C9 10.66 9 11.32 9 12 C9.99 12 10.98 12 12 12 C11.73727987 15.85322864 11.42708562 17.56137153 8.6875 20.375 C6 22 6 22 2 22 C2 21.01 2 20.02 2 19 C1.34 19 0.68 19 0 19 C0 19.99 0 20.98 0 22 C-3.56050965 21.69481346 -5.00035037 20.99971192 -7.8125 18.6875 C-10 16 -10 16 -10 12 C-9.01 12 -8.02 12 -7 12 C-7 11.34 -7 10.68 -7 10 C-7.99 10 -8.98 10 -10 10 C-9.84876423 7.35337395 -9.49998757 5.55721506 -7.703125 3.5546875 C-3.6 0 -3.6 0 0 0 Z " fill="#E9EDF0" transform="translate(44,36)"/>
<path d="M0 0 C1.18142578 0.41572266 1.18142578 0.41572266 2.38671875 0.83984375 C10.31734972 3.4771305 17.65398264 4.72680794 26 5 C26.19397476 6.97854258 26.38001321 8.9578648 26.5625 10.9375 C26.66691406 12.03964844 26.77132813 13.14179687 26.87890625 14.27734375 C26.91886719 15.17582031 26.95882813 16.07429688 27 17 C25.34784709 18.65215291 23.46179221 18.21095636 21.1875 18.25 C13.86591412 18.1925758 6.17070581 17.11380387 0 13 C-0.29296875 9.9609375 -0.29296875 9.9609375 -0.1875 6.375 C-0.16042969 5.18648437 -0.13335937 3.99796875 -0.10546875 2.7734375 C-0.07066406 1.85820313 -0.03585937 0.94296875 0 0 Z " fill="#EBB95E" transform="translate(4,37)"/>
<path d="M0 0 C1.625 1.1875 1.625 1.1875 3 3 C3.845625 3.825 4.69125 4.65 5.5625 5.5 C9.62373767 9.66537197 10.82099708 12.80908185 11.27734375 18.484375 C10.94550668 21.49427742 10.30048499 22.49252352 8.125 24.5625 C4.02720912 27.50131972 -0.05179839 27.97755918 -5 28 C-2 26 -2 26 1.5 24.8125 C6.07552836 22.44302996 6.4690467 20.77297205 8 16 C7.01 16 6.02 16 5 16 C5 15.34 5 14.68 5 14 C5.99 14 6.98 14 8 14 C6.62046126 9.22187526 6.62046126 9.22187526 3.2421875 5.8671875 C1.5301487 5.15326039 -0.23370635 4.56654702 -2 4 C-2 4.99 -2 5.98 -2 7 C-2.66 7 -3.32 7 -4 7 C-4 6.01 -4 5.02 -4 4 C-8.02587882 5.78927948 -10.72216331 7.16364347 -13 11 C-13.33 11.99 -13.66 12.98 -14 14 C-13.01 14 -12.02 14 -11 14 C-11 14.66 -11 15.32 -11 16 C-11.99 16 -12.98 16 -14 16 C-12.12344231 21.1358421 -10.67025461 23.84442256 -6 27 C-9.53508103 26.70540991 -10.76203444 26.25118587 -13.25 23.625 C-16.09772043 19.35341936 -16.34316727 16.06171722 -16 11 C-13.26570003 3.4047223 -8.31860942 -1.25563916 0 0 Z " fill="#79BBF4" transform="translate(48,32)"/>
<path d="M0 0 C4.40938215 0.50392939 6.78843816 1.9620361 10 5 C11.70805274 7.68408288 12 8.76169533 12 12 C9 11 9 11 7.125 8.0625 C4.87590294 4.82115423 3.71514168 4.0319838 0 3 C0 2.01 0 1.02 0 0 Z " fill="#98CBEC" transform="translate(48,32)"/>
<path d="M0 0 C0.33 0.66 0.66 1.32 1 2 C-0.5778125 2.0928125 -0.5778125 2.0928125 -2.1875 2.1875 C-6.66884605 3.14254096 -7.96025526 4.70694319 -11 8 C-11.99 8 -12.98 8 -14 8 C-11.33342809 1.2123624 -7.01275254 -0.55001981 0 0 Z " fill="#8CC9F9" transform="translate(48,32)"/>
<path d="M0 0 C0.66 0.33 1.32 0.66 2 1 C1.54625 1.61875 1.0925 2.2375 0.625 2.875 C-1.56839052 7.0930587 -2.23083349 11.33975586 -3 16 C-3.66 16 -4.32 16 -5 16 C-5.45376195 9.53389228 -4.62353082 6.38039425 -1 1 C-0.67 0.67 -0.34 0.34 0 0 Z " fill="#91C9F3" transform="translate(35,35)"/>
<path d="M0 0 C0.66 0.66 1.32 1.32 2 2 C0.68 2 -0.64 2 -2 2 C-2 2.99 -2 3.98 -2 5 C-2.66 5 -3.32 5 -4 5 C-4 4.01 -4 3.02 -4 2 C-5.32 1.67 -6.64 1.34 -8 1 C-5.23749964 -0.38125018 -3.05268901 -0.19079306 0 0 Z " fill="#80B3E4" transform="translate(48,34)"/>
<path d="M0 0 C0.66 0 1.32 0 2 0 C2.66 2.97 3.32 5.94 4 9 C2.68 8.34 1.36 7.68 0 7 C0 4.69 0 2.38 0 0 Z " fill="#ADA2AD" transform="translate(44,41)"/>
<path d="M0 0 C0.66 0.66 1.32 1.32 2 2 C0.02 3.32 -1.96 4.64 -4 6 C-4 4.68 -4 3.36 -4 2 C-2.68 1.34 -1.36 0.68 0 0 Z " fill="#7DC3FD" transform="translate(39,35)"/>
</svg>
